<?xml version="1.0" encoding="iso-8859-1"?>
<!-- Uploaded to: SVG Repo, www.svgrepo.com, Generator: SVG Repo Mixer Tools -->
<svg fill="#ffffff" height="800px" width="800px" version="1.1" id="Layer_1" xmlns="http://www.w3.org/2000/svg" xmlns:xlink="http://www.w3.org/1999/xlink"
	 viewBox="0 0 512 512" xml:space="preserve">
<g>
	<g>
		<path d="M272.696,167.906v55.03h-33.391v-55.03c-44.291,7.913-78.028,46.688-78.028,93.22c0,52.231,42.493,94.723,94.723,94.723
			s94.723-42.493,94.723-94.723C350.723,214.594,316.987,175.819,272.696,167.906z"/>
	</g>
</g>
<g>
	<g>
		<path d="M437.02,74.98C388.667,26.628,324.38,0,256,0S123.333,26.628,74.98,74.98C26.628,123.333,0,187.619,0,256
			s26.628,132.667,74.98,181.02C123.333,485.372,187.62,512,256,512s132.667-26.628,181.02-74.98
			C485.372,388.667,512,324.381,512,256S485.372,123.333,437.02,74.98z M256,389.239c-70.643,0-128.115-57.472-128.115-128.115
			c0-64.985,48.636-118.82,111.419-127.026V76.477h33.391v57.621c62.782,8.208,111.419,62.042,111.419,127.026
			C384.115,331.767,326.643,389.239,256,389.239z"/>
	</g>
</g>
</svg>